<svg xmlns="http://www.w3.org/2000/svg" xmlns:xlink="http://www.w3.org/1999/xlink" width="1000" zoomAndPan="magnify" viewBox="0 0 750 374.999991" height="500" preserveAspectRatio="xMidYMid meet" version="1.0"><defs><g/><clipPath id="1e1ff1e6ca"><path d="M 0 123.796875 L 291 123.796875 L 291 185.296875 L 0 185.296875 Z M 0 123.796875 " clip-rule="nonzero"/></clipPath><clipPath id="dc9cfddd10"><path d="M 629 137 L 695 137 L 695 236.296875 L 629 236.296875 Z M 629 137 " clip-rule="nonzero"/></clipPath><clipPath id="d19364886b"><path d="M 575.019531 142 L 625 142 L 625 210 L 575.019531 210 Z M 575.019531 142 " clip-rule="nonzero"/></clipPath><clipPath id="b545d7f786"><path d="M 579 123.796875 L 694 123.796875 L 694 203 L 579 203 Z M 579 123.796875 " clip-rule="nonzero"/></clipPath></defs><g clip-path="url(#1e1ff1e6ca)"><path fill="#479ece" d="M 286.738281 123.851562 C 284.367188 123.851562 282.472656 125.75 282.472656 128.121094 C 282.472656 128.203125 282.472656 128.28125 282.472656 128.359375 L 158.527344 128.359375 L 110.605469 180.183594 L 8.449219 180.183594 C 8.050781 178.207031 6.394531 176.703125 4.261719 176.703125 C 1.894531 176.703125 0 178.601562 0 180.976562 C 0 183.347656 1.894531 185.246094 4.261719 185.246094 C 6.394531 185.246094 8.132812 183.664062 8.449219 181.609375 L 111.238281 181.609375 L 159.15625 129.785156 L 282.867188 129.785156 C 283.5 131.285156 285 132.394531 286.738281 132.394531 C 289.105469 132.394531 291 130.496094 291 128.121094 C 291 125.75 289.105469 123.851562 286.738281 123.851562 Z M 286.738281 123.851562 " fill-opacity="1" fill-rule="nonzero"/></g><g clip-path="url(#dc9cfddd10)"><path fill="#74ba9c" d="M 692.332031 183.386719 C 689.652344 190.113281 685.003906 192.640625 682.40625 193.75 C 673.363281 197.625 663.441406 197.132812 656.054688 194.761719 C 649.089844 192.519531 645.164062 186.453125 644.007812 183.167969 C 642.195312 178.464844 642.023438 172.644531 642.792969 166.820312 C 644.707031 152.710938 657.445312 148.773438 659.941406 148.171875 C 664.257812 147.125 669.535156 146.773438 676.921875 148.25 C 688.410156 150.546875 692.875 160.210938 693.933594 166.367188 C 694.996094 172.523438 693.820312 179.644531 692.332031 183.386719 Z M 664.984375 142.320312 C 666.871094 142.347656 669.949219 142.320312 672.082031 142.214844 C 672.726562 142.203125 673.363281 142.136719 673.992188 142.015625 C 674.863281 141.785156 675.21875 140.894531 675.238281 139.996094 C 675.257812 139.09375 675.011719 138.519531 674.089844 138.203125 C 672.011719 137.550781 667.394531 137.304688 664.0625 138.0625 C 663.480469 138.179688 662.949219 138.417969 662.472656 138.773438 C 661.886719 139.222656 661.855469 140.195312 662.039062 140.910156 C 662.378906 142.152344 663.632812 142.304688 664.984375 142.324219 Z M 679.449219 206.292969 C 674.203125 205.003906 668.910156 204.746094 663.566406 205.523438 C 662.273438 205.699219 655.136719 206.59375 653.394531 213.894531 C 648.800781 214.992188 644.339844 216.496094 640.015625 218.402344 L 639.910156 218.453125 C 639.351562 215.167969 638.71875 211.871094 638.195312 209.042969 C 637.792969 206.886719 637.183594 204.789062 636.367188 202.753906 C 636.210938 202.390625 636.007812 202.054688 635.765625 201.746094 C 637.449219 200.050781 636.226562 193.996094 634.683594 191.070312 C 634.492188 190.707031 634.0625 190.019531 633.660156 190.097656 C 633.257812 190.171875 633.105469 190.679688 633.105469 191.09375 C 633.113281 192.25 633.238281 193.398438 633.46875 194.535156 C 631.648438 194.355469 630.292969 194.988281 629.660156 195.695312 C 629.214844 196.261719 629.066406 196.902344 629.21875 197.613281 C 629.5 198.976562 630.046875 200.21875 630.867188 201.339844 C 631.355469 202.023438 632.003906 202.480469 632.808594 202.714844 C 632.265625 205.246094 632.867188 207.898438 633.464844 210.410156 C 634.207031 213.527344 634.96875 216.699219 636.5625 219.472656 C 636.84375 220.050781 637.253906 220.519531 637.789062 220.871094 C 638.027344 221.011719 638.28125 221.078125 638.554688 221.070312 C 638.828125 221.066406 639.082031 220.992188 639.316406 220.84375 C 639.710938 222.167969 640.308594 223.472656 641.539062 223.980469 C 642.332031 224.308594 643.21875 224.230469 644.066406 224.128906 C 646.265625 223.878906 649.542969 223.265625 652.804688 222.570312 C 653.019531 225.476562 653.734375 228.453125 655.160156 232.21875 C 655.953125 234.382812 659.074219 235.011719 661.871094 235.609375 C 667.277344 236.085938 673.34375 236.292969 679.738281 235.328125 C 680.324219 235.238281 682.207031 234.839844 682.996094 234.179688 C 683.582031 233.644531 684.003906 233 684.253906 232.242188 C 686.890625 225.28125 687.742188 218.742188 686.207031 213.242188 C 684.445312 207.039062 680.277344 206.492188 679.449219 206.296875 Z M 679.449219 206.292969 " fill-opacity="1" fill-rule="nonzero"/></g><path fill="#2d323f" d="M 667.738281 147.265625 C 667.632812 145.609375 667.699219 143.960938 667.949219 142.320312 C 668.550781 142.320312 669.167969 142.320312 669.773438 142.289062 C 669.773438 142.40625 669.804688 142.527344 669.8125 142.636719 C 669.882812 144.199219 669.953125 145.765625 670.019531 147.335938 C 669.226562 147.285156 668.464844 147.265625 667.738281 147.265625 Z M 673.730469 203.964844 C 674.007812 203.820312 674.222656 203.609375 674.375 203.339844 C 674.527344 203.066406 674.59375 202.773438 674.574219 202.460938 C 674.535156 202.160156 674.417969 201.894531 674.222656 201.664062 C 674.027344 201.4375 673.785156 201.277344 673.496094 201.191406 C 673.851562 201.078125 674.136719 200.867188 674.347656 200.558594 C 674.5625 200.253906 674.664062 199.910156 674.648438 199.535156 C 674.574219 198.871094 674.019531 198.179688 673.351562 198.203125 C 673.734375 198.078125 674.042969 197.855469 674.277344 197.527344 C 674.507812 197.203125 674.625 196.835938 674.621094 196.433594 C 674.613281 196.296875 674.578125 196.164062 674.523438 196.035156 C 671.289062 196.578125 668.035156 196.710938 664.765625 196.433594 C 664.71875 196.6875 664.75 196.925781 664.859375 197.15625 C 665.183594 197.746094 665.675781 198.085938 666.339844 198.171875 C 666.003906 198.265625 665.726562 198.445312 665.503906 198.71875 C 665.285156 198.992188 665.167969 199.300781 665.148438 199.652344 C 665.179688 199.988281 665.308594 200.28125 665.527344 200.539062 C 665.742188 200.792969 666.015625 200.960938 666.339844 201.042969 C 666.019531 201.121094 665.753906 201.285156 665.542969 201.535156 C 665.328125 201.785156 665.210938 202.074219 665.183594 202.402344 C 665.164062 202.585938 665.179688 202.765625 665.230469 202.941406 C 665.28125 203.117188 665.359375 203.277344 665.472656 203.421875 C 665.582031 203.566406 665.714844 203.683594 665.871094 203.777344 C 666.027344 203.871094 666.195312 203.929688 666.375 203.957031 C 666.027344 204.296875 665.65625 204.550781 665.542969 205.238281 C 665.542969 205.25 665.542969 205.261719 665.542969 205.273438 C 668.644531 204.960938 671.742188 205.007812 674.835938 205.417969 C 674.851562 205.308594 674.851562 205.199219 674.835938 205.089844 C 674.78125 204.804688 674.65625 204.5625 674.453125 204.355469 C 674.25 204.152344 674.003906 204.019531 673.722656 203.964844 Z M 652.785156 177.40625 C 652.59375 177.40625 652.429688 177.476562 652.292969 177.613281 C 652.160156 177.746094 652.089844 177.910156 652.085938 178.101562 C 651.980469 179.074219 651.636719 179.953125 651.054688 180.738281 C 650.636719 181.351562 650.058594 181.703125 649.324219 181.796875 C 648.585938 181.738281 648.003906 181.402344 647.578125 180.792969 C 646.980469 180.027344 646.625 179.160156 646.515625 178.191406 C 646.507812 178 646.4375 177.835938 646.300781 177.699219 C 646.167969 177.566406 646.003906 177.496094 645.816406 177.488281 C 645.621094 177.488281 645.457031 177.558594 645.320312 177.695312 C 645.1875 177.832031 645.117188 177.996094 645.117188 178.191406 C 645.347656 180 646.210938 182.066406 647.96875 182.882812 C 649.722656 183.699219 651.347656 182.765625 652.355469 181.316406 C 653 180.339844 653.375 179.269531 653.480469 178.101562 C 653.476562 177.910156 653.410156 177.742188 653.269531 177.609375 C 653.132812 177.472656 652.96875 177.402344 652.777344 177.40625 Z M 653.976562 168.359375 C 655.261719 169.71875 657.660156 170.097656 659.09375 168.90625 C 659.476562 168.578125 659.789062 168.199219 660.03125 167.757812 C 660.273438 167.320312 660.429688 166.851562 660.503906 166.355469 C 660.578125 165.855469 660.558594 165.363281 660.453125 164.871094 C 660.347656 164.378906 660.160156 163.925781 659.886719 163.503906 C 659.40625 162.84375 658.773438 162.425781 657.976562 162.253906 C 657.265625 162.074219 656.550781 162.054688 655.832031 162.199219 C 653.914062 162.789062 653.132812 164.683594 653.25 166.695312 C 653.277344 167.347656 653.523438 167.902344 653.984375 168.359375 Z M 683.417969 162.378906 C 681.128906 161.582031 677.925781 161.796875 675.695312 162.683594 C 672.160156 164.09375 669.015625 167.953125 669.867188 175.292969 C 670.375 179.65625 672.917969 181.78125 674.859375 182.785156 C 674.214844 184.488281 673.289062 186.023438 672.078125 187.382812 C 671.164062 188.386719 670.070312 189.117188 668.792969 189.566406 C 667.21875 190.042969 665.609375 190.296875 663.960938 190.328125 C 662.441406 190.394531 660.910156 190.382812 659.382812 190.304688 C 659.382812 190.191406 659.382812 190.085938 659.382812 190.003906 C 659.40625 189.589844 659.246094 189.257812 658.910156 189.015625 C 658.640625 188.878906 658.355469 188.8125 658.054688 188.816406 C 657.058594 188.757812 656.066406 188.722656 655.070312 188.71875 C 654.785156 188.703125 654.507812 188.738281 654.234375 188.824219 C 653.972656 188.960938 653.765625 189.15625 653.613281 189.410156 C 653.460938 189.664062 653.386719 189.9375 653.390625 190.234375 C 653.34375 190.769531 653.402344 191.289062 653.570312 191.796875 C 653.722656 192.136719 653.980469 192.339844 654.34375 192.402344 C 654.980469 192.53125 657.125 192.777344 658.449219 192.355469 C 658.632812 192.308594 658.800781 192.226562 658.945312 192.105469 C 659.097656 191.949219 659.203125 191.761719 659.261719 191.550781 C 659.292969 191.445312 659.3125 191.339844 659.328125 191.230469 C 660.738281 191.308594 662.15625 191.324219 663.566406 191.277344 C 665.296875 191.261719 666.996094 191.03125 668.671875 190.585938 C 671.351562 189.808594 673.320312 187.796875 674.628906 185.402344 C 675.023438 184.679688 675.363281 183.9375 675.679688 183.179688 C 676.160156 183.378906 676.652344 183.53125 677.160156 183.632812 C 679.019531 183.902344 680.859375 183.8125 682.679688 183.363281 C 685.460938 182.5625 689.402344 180.570312 689.726562 174.117188 C 690.125 166.113281 686.285156 163.371094 683.425781 162.367188 Z M 664.757812 209.070312 C 662.878906 208.5625 661.023438 208.640625 659.195312 209.3125 C 657.609375 209.914062 656.238281 211.308594 655.550781 213.421875 C 656.917969 213.136719 658.28125 212.890625 659.625 212.6875 C 659.625 212.6875 662.679688 211.890625 663.402344 215.597656 C 664.253906 219.949219 661.210938 220.617188 661.210938 220.617188 C 659.988281 220.9375 658.398438 221.328125 656.65625 221.730469 C 657.601562 222.753906 658.761719 223.355469 660.140625 223.542969 C 661.546875 223.71875 662.9375 223.644531 664.316406 223.328125 C 666.324219 222.785156 668.59375 221.359375 668.859375 216.972656 C 669.179688 211.542969 666.804688 209.726562 664.753906 209.058594 Z M 640.96875 217.945312 C 640.597656 217.746094 640.195312 217.648438 639.773438 217.65625 C 639.347656 217.664062 638.953125 217.777344 638.589844 217.992188 C 638.226562 218.203125 637.949219 218.496094 637.757812 218.871094 C 637.570312 219.246094 637.496094 219.640625 637.535156 220.058594 C 637.535156 220.707031 637.757812 221.265625 638.203125 221.738281 C 638.75 222.207031 639.378906 222.402344 640.09375 222.316406 C 640.339844 222.285156 640.574219 222.214844 640.796875 222.105469 C 641.019531 221.992188 641.21875 221.847656 641.390625 221.671875 C 641.566406 221.492188 641.707031 221.289062 641.8125 221.066406 C 641.917969 220.839844 641.980469 220.601562 642.007812 220.351562 C 642.074219 219.886719 642.011719 219.4375 641.824219 219.003906 C 641.640625 218.570312 641.355469 218.21875 640.96875 217.945312 Z M 640.96875 217.945312 " fill-opacity="1" fill-rule="nonzero"/><g clip-path="url(#d19364886b)"><path fill="#bfd7dd" d="M 596.519531 163.09375 C 593.570312 163.894531 580.238281 168.136719 577.546875 169.578125 C 576.898438 169.859375 576.371094 170.289062 575.960938 170.867188 C 575.703125 171.378906 575.570312 171.921875 575.5625 172.492188 C 575.011719 179.484375 575.210938 198.164062 575.722656 205.066406 C 575.722656 205.066406 575.652344 206.757812 579.957031 205.144531 C 584.261719 203.527344 591.996094 200.609375 596.261719 198.808594 C 596.507812 198.726562 596.722656 198.59375 596.90625 198.410156 C 597.105469 198.105469 597.199219 197.773438 597.175781 197.40625 C 597.644531 186.5625 597.859375 168.367188 597.300781 163.519531 C 597.25 163.21875 597.054688 162.964844 596.519531 163.09375 Z M 606.402344 175.960938 C 610.722656 174.339844 618.457031 171.433594 622.707031 169.632812 C 622.953125 169.550781 623.167969 169.417969 623.351562 169.234375 C 623.554688 168.929688 623.644531 168.597656 623.617188 168.230469 C 624.015625 159.402344 624.203125 148.910156 623.773438 144.632812 C 623.636719 143.304688 623.539062 142.6875 622.882812 142.753906 C 620.246094 143.203125 606.710938 147.804688 604.007812 149.25 C 603.359375 149.53125 602.832031 149.960938 602.421875 150.539062 C 602.164062 151.050781 602.03125 151.59375 602.023438 152.167969 C 601.527344 159.597656 601.753906 169.460938 602.1875 175.894531 C 602.167969 175.890625 602.097656 177.582031 606.402344 175.960938 Z M 623.082031 175.710938 C 620.449219 176.164062 606.914062 180.765625 604.210938 182.207031 C 603.5625 182.488281 603.035156 182.917969 602.625 183.496094 C 602.363281 184.007812 602.234375 184.550781 602.226562 185.125 C 601.730469 192.554688 601.957031 202.417969 602.390625 208.851562 C 602.390625 208.851562 602.320312 210.542969 606.625 208.925781 C 610.929688 207.3125 618.640625 204.390625 622.894531 202.59375 C 623.140625 202.515625 623.355469 202.382812 623.539062 202.195312 C 623.738281 201.894531 623.828125 201.558594 623.804688 201.195312 C 624.203125 192.363281 624.386719 181.875 623.960938 177.59375 C 623.824219 176.265625 623.726562 175.648438 623.066406 175.710938 Z M 623.082031 175.710938 " fill-opacity="1" fill-rule="nonzero"/></g><g clip-path="url(#b545d7f786)"><path fill="#2d323f" d="M 593.710938 184.65625 L 591.992188 185.25 L 584.550781 187.859375 L 579.859375 189.503906 C 579.289062 189.703125 579.0625 188.800781 579.609375 188.605469 L 581.328125 188.003906 L 588.769531 185.394531 L 593.484375 183.757812 C 594.03125 183.5625 594.277344 184.453125 593.710938 184.65625 Z M 593.484375 188.5625 L 588.789062 190.203125 L 581.328125 192.828125 L 579.609375 193.429688 C 579.046875 193.625 579.289062 194.53125 579.859375 194.328125 L 584.550781 192.6875 L 591.992188 190.078125 L 593.710938 189.476562 C 594.277344 189.261719 594.03125 188.363281 593.484375 188.5625 Z M 593.484375 174.15625 L 588.769531 175.800781 L 581.328125 178.40625 L 579.609375 179.007812 C 579.046875 179.207031 579.289062 180.109375 579.859375 179.910156 L 584.550781 178.265625 L 591.992188 175.660156 L 593.710938 175.054688 C 594.277344 174.859375 594.03125 173.957031 593.484375 174.15625 Z M 593.484375 178.941406 L 588.789062 180.585938 L 581.347656 183.195312 L 579.628906 183.796875 C 579.070312 183.992188 579.3125 184.894531 579.878906 184.699219 L 584.570312 183.050781 L 591.992188 180.46875 L 593.710938 179.863281 C 594.277344 179.667969 594.03125 178.757812 593.484375 178.957031 Z M 606.316406 160.332031 L 611.015625 158.691406 L 618.457031 156.082031 L 620.171875 155.480469 C 620.734375 155.285156 620.492188 154.378906 619.925781 154.578125 L 615.230469 156.226562 L 607.777344 158.828125 L 606.070312 159.429688 C 605.511719 159.628906 605.75 160.53125 606.316406 160.332031 Z M 606.316406 155.546875 L 611.015625 153.90625 L 618.457031 151.296875 L 620.171875 150.695312 C 620.734375 150.496094 620.492188 149.59375 619.925781 149.792969 L 615.230469 151.4375 L 607.777344 154.027344 L 606.070312 154.632812 C 605.511719 154.832031 605.75 155.746094 606.316406 155.53125 Z M 606.316406 165.152344 L 611.015625 163.507812 L 618.457031 160.898438 L 620.171875 160.296875 C 620.734375 160.101562 620.492188 159.195312 619.925781 159.394531 L 615.230469 161.042969 L 607.777344 163.632812 L 606.058594 164.234375 C 605.511719 164.429688 605.75 165.316406 606.316406 165.136719 Z M 593.484375 193.359375 L 588.789062 195.003906 L 581.328125 197.613281 L 579.609375 198.214844 C 579.046875 198.414062 579.289062 199.3125 579.859375 199.113281 L 584.550781 197.472656 L 591.992188 194.863281 L 593.710938 194.261719 C 594.277344 194.066406 594.03125 193.160156 593.484375 193.359375 Z M 620.132812 192.34375 L 615.4375 193.988281 L 607.976562 196.59375 L 606.257812 197.210938 C 605.691406 197.40625 605.933594 198.3125 606.503906 198.113281 L 611.199219 196.46875 L 618.640625 193.859375 L 620.359375 193.261719 C 620.921875 193.046875 620.679688 192.144531 620.113281 192.34375 Z M 620.132812 182.738281 L 615.4375 184.386719 L 607.976562 186.992188 L 606.257812 187.597656 C 605.691406 187.792969 605.933594 188.691406 606.503906 188.492188 L 611.199219 186.847656 L 618.640625 184.238281 L 620.359375 183.636719 C 620.921875 183.445312 620.679688 182.539062 620.113281 182.738281 Z M 593.484375 169.355469 L 588.789062 170.996094 L 581.347656 173.605469 L 579.628906 174.207031 C 579.070312 174.40625 579.3125 175.308594 579.878906 175.109375 L 584.570312 173.464844 L 592.011719 170.859375 L 593.730469 170.257812 C 594.277344 170.058594 594.03125 169.15625 593.484375 169.355469 Z M 620.132812 187.539062 L 615.4375 189.1875 L 607.976562 191.792969 L 606.257812 192.394531 C 605.691406 192.589844 605.933594 193.496094 606.503906 193.296875 L 611.199219 191.652344 L 618.640625 189.042969 L 620.359375 188.441406 C 620.921875 188.246094 620.679688 187.339844 620.113281 187.539062 Z M 606.316406 169.9375 L 611.015625 168.289062 L 618.457031 165.683594 L 620.171875 165.082031 C 620.734375 164.886719 620.492188 163.984375 619.925781 164.179688 L 615.230469 165.828125 L 607.777344 168.433594 L 606.058594 169.035156 C 605.511719 169.230469 605.75 170.136719 606.316406 169.9375 Z M 620.113281 197.144531 L 615.417969 198.808594 L 607.976562 201.394531 L 606.257812 201.996094 C 605.691406 202.195312 605.933594 203.097656 606.503906 202.898438 L 611.199219 201.253906 L 618.640625 198.648438 L 620.359375 198.046875 C 620.921875 197.847656 620.679688 196.945312 620.113281 197.144531 Z M 678.621094 133.679688 C 678.4375 133.730469 678.300781 133.84375 678.203125 134.011719 C 678.109375 134.175781 678.089844 134.355469 678.136719 134.539062 C 678.195312 134.722656 678.304688 134.859375 678.472656 134.949219 C 678.636719 135.042969 678.8125 135.0625 678.996094 135.015625 L 679.109375 134.996094 L 679.257812 134.996094 C 679.382812 134.996094 679.511719 134.996094 679.65625 134.996094 L 679.726562 134.996094 L 679.917969 135.035156 C 680.039062 135.0625 680.164062 135.105469 680.285156 135.140625 L 680.359375 135.140625 L 680.527344 135.230469 C 680.632812 135.285156 680.734375 135.347656 680.832031 135.414062 L 680.894531 135.457031 C 680.945312 135.496094 680.992188 135.539062 681.039062 135.585938 C 681.132812 135.675781 681.21875 135.769531 681.300781 135.867188 L 681.324219 135.898438 L 681.429688 136.066406 C 681.460938 136.128906 681.492188 136.183594 681.523438 136.246094 C 681.558594 136.308594 681.5625 136.328125 681.574219 136.351562 C 681.613281 136.464844 681.652344 136.585938 681.683594 136.707031 C 681.714844 136.824219 681.710938 136.835938 681.722656 136.90625 C 681.722656 136.917969 681.722656 136.929688 681.722656 136.945312 L 681.722656 136.984375 C 681.734375 137.117188 681.734375 137.25 681.722656 137.382812 C 681.722656 137.449219 681.722656 137.519531 681.722656 137.585938 L 681.722656 137.621094 C 681.722656 137.636719 681.722656 137.652344 681.722656 137.664062 C 681.699219 137.785156 681.671875 137.902344 681.636719 138.019531 C 681.617188 138.085938 681.597656 138.144531 681.574219 138.203125 C 681.550781 138.265625 681.535156 138.28125 681.515625 138.320312 C 681.453125 138.480469 681.445312 138.644531 681.5 138.808594 C 681.558594 138.972656 681.660156 139.101562 681.808594 139.191406 C 681.957031 139.277344 682.117188 139.308594 682.289062 139.277344 C 682.460938 139.246094 682.597656 139.160156 682.707031 139.027344 C 683.046875 138.382812 683.1875 137.695312 683.125 136.96875 C 683.066406 136.242188 682.816406 135.589844 682.378906 135.011719 C 681.941406 134.429688 681.378906 134.015625 680.699219 133.761719 C 680.019531 133.507812 679.324219 133.460938 678.613281 133.613281 Z M 685.675781 130.425781 C 684.871094 129.765625 683.957031 129.339844 682.9375 129.144531 C 681.734375 128.933594 680.527344 128.933594 679.320312 129.144531 C 679.136719 129.199219 678.996094 129.308594 678.902344 129.476562 C 678.804688 129.644531 678.785156 129.820312 678.832031 130.007812 C 678.886719 130.191406 678.996094 130.328125 679.164062 130.425781 C 679.328125 130.519531 679.503906 130.542969 679.691406 130.496094 C 681.871094 130.167969 684.269531 130.496094 685.597656 132.4375 C 686.277344 133.425781 686.671875 134.511719 686.789062 135.703125 C 686.925781 136.828125 686.886719 137.949219 686.667969 139.0625 C 686.476562 139.9375 687.820312 140.3125 688.011719 139.433594 C 688.492188 137.363281 688.371094 135.328125 687.648438 133.332031 C 687.230469 132.199219 686.570312 131.230469 685.675781 130.425781 Z M 692.027344 130.027344 C 690.871094 127.390625 688.429688 125.425781 685.742188 124.523438 C 684.125 124.03125 682.46875 123.808594 680.777344 123.851562 C 680.585938 123.851562 680.421875 123.917969 680.285156 124.054688 C 680.148438 124.195312 680.078125 124.359375 680.078125 124.550781 C 680.078125 124.746094 680.148438 124.910156 680.285156 125.046875 C 680.421875 125.1875 680.585938 125.253906 680.777344 125.253906 C 682.109375 125.210938 683.421875 125.34375 684.71875 125.652344 C 685.984375 125.980469 687.132812 126.550781 688.160156 127.363281 C 689.15625 128.121094 689.949219 129.050781 690.542969 130.15625 C 691.152344 131.363281 691.507812 132.644531 691.613281 133.992188 C 691.726562 135.714844 691.644531 137.425781 691.371094 139.125 C 691.328125 139.3125 691.351562 139.488281 691.445312 139.652344 C 691.539062 139.820312 691.679688 139.929688 691.859375 139.988281 C 692.046875 140.035156 692.222656 140.015625 692.390625 139.917969 C 692.554688 139.824219 692.664062 139.683594 692.71875 139.5 C 693.179688 136.3125 693.34375 133.019531 692.019531 130.015625 Z M 692.027344 130.027344 " fill-opacity="1" fill-rule="nonzero"/></g><path fill="#f7cc9a" d="M 663.953125 176.730469 C 664.042969 177.007812 664.050781 177.289062 663.980469 177.574219 C 663.90625 177.855469 663.765625 178.097656 663.558594 178.300781 C 663.128906 178.695312 662.632812 178.960938 662.066406 179.097656 C 661.292969 179.339844 660.496094 179.449219 659.683594 179.425781 C 659.117188 179.4375 658.609375 179.265625 658.164062 178.910156 C 658.058594 178.800781 658 178.667969 657.980469 178.511719 C 657.960938 178.070312 658.054688 177.65625 658.269531 177.269531 C 658.484375 176.878906 658.785156 176.578125 659.171875 176.363281 C 659.953125 175.953125 660.789062 175.753906 661.671875 175.769531 C 662.546875 175.726562 663.628906 175.902344 663.953125 176.730469 Z M 683.121094 168.609375 C 682.027344 168.304688 680.945312 168.351562 679.878906 168.742188 C 678.503906 169.304688 677.128906 170.757812 677.472656 173.699219 C 677.8125 176.644531 680.71875 177.113281 680.71875 177.113281 C 681.476562 177.222656 682.226562 177.1875 682.96875 177.011719 C 684.054688 176.699219 685.65625 175.605469 685.796875 173.023438 C 685.964844 170.101562 684.234375 169.015625 683.121094 168.609375 Z M 683.121094 168.609375 " fill-opacity="1" fill-rule="nonzero"/><g fill="#479ece" fill-opacity="1"><g transform="translate(164.001445, 215.416049)"><g><path d="M 42.054688 -17.597656 L 47.738281 0 L 63.082031 0 L 40.878906 -62.269531 L 23.375 -62.269531 L 0.902344 0 L 15.972656 0 L 21.75 -17.597656 Z M 31.945312 -49.996094 L 38.535156 -28.699219 L 25.269531 -28.699219 Z M 31.945312 -49.996094 "/></g></g></g><g fill="#479ece" fill-opacity="1"><g transform="translate(226.267726, 215.416049)"><g><path d="M 21.839844 0 L 21.839844 -62.269531 L 7.671875 -62.269531 L 7.671875 0 Z M 21.839844 0 "/></g></g></g><g fill="#479ece" fill-opacity="1"><g transform="translate(253.520507, 215.416049)"><g><path d="M 58.296875 -10.289062 C 64.253906 -15.339844 67.230469 -22.921875 67.230469 -31.132812 C 67.230469 -50.898438 55.230469 -63.621094 36.007812 -63.621094 C 16.695312 -63.621094 4.691406 -50.898438 4.691406 -31.132812 C 4.691406 -11.460938 16.695312 1.261719 36.007812 1.261719 C 38.351562 1.261719 40.429688 1.082031 42.414062 0.632812 C 44.941406 0.0898438 46.476562 -0.179688 49.003906 -0.179688 C 52.972656 -0.179688 55.769531 0.722656 61.636719 4.421875 L 68.585938 -4.601562 C 65.066406 -7.582031 61.90625 -9.386719 58.296875 -10.289062 Z M 19.3125 -31.132812 C 19.3125 -45.121094 25.628906 -53.152344 36.007812 -53.152344 C 46.292969 -53.152344 52.613281 -45.121094 52.613281 -31.132812 C 52.613281 -17.238281 46.292969 -9.203125 36.007812 -9.203125 C 25.628906 -9.203125 19.3125 -17.238281 19.3125 -31.132812 Z M 19.3125 -31.132812 "/></g></g></g><g fill="#479ece" fill-opacity="1"><g transform="translate(323.637761, 215.416049)"><g><path d="M 59.832031 -62.269531 L 45.753906 -62.269531 L 45.753906 -24.183594 C 45.753906 -22.46875 45.753906 -21.296875 45.574219 -20.035156 C 45.121094 -13.265625 41.0625 -9.203125 33.300781 -9.203125 C 25.539062 -9.203125 21.476562 -13.265625 20.9375 -20.035156 C 20.847656 -21.296875 20.847656 -22.46875 20.847656 -24.183594 L 20.847656 -62.269531 L 6.769531 -62.269531 L 6.769531 -26.261719 C 6.769531 -23.375 6.769531 -21.566406 6.949219 -18.320312 C 7.761719 -7.851562 15.070312 1.261719 33.300781 1.261719 C 51.527344 1.261719 58.839844 -7.851562 59.5625 -18.320312 C 59.832031 -21.566406 59.832031 -23.375 59.832031 -26.261719 Z M 59.832031 -62.269531 "/></g></g></g><g fill="#479ece" fill-opacity="1"><g transform="translate(387.618621, 215.416049)"><g><path d="M 53.875 -11.101562 L 21.839844 -11.101562 L 21.839844 -25.71875 L 50.898438 -25.71875 L 50.898438 -36.730469 L 21.839844 -36.730469 L 21.839844 -51.257812 L 52.972656 -51.257812 L 52.972656 -62.269531 L 7.671875 -62.269531 L 7.671875 0 L 53.875 0 Z M 53.875 -11.101562 "/></g></g></g><g fill="#479ece" fill-opacity="1"><g transform="translate(444.109479, 215.416049)"><g><path d="M 28.878906 -63.53125 C 16.785156 -63.53125 6.046875 -56.761719 6.046875 -45.121094 C 6.046875 -33.210938 14.167969 -28.789062 27.523438 -25.449219 C 36.007812 -23.464844 38.894531 -20.484375 38.894531 -16.152344 C 38.894531 -11.914062 34.832031 -9.203125 29.691406 -9.203125 C 24.003906 -9.203125 19.042969 -12.273438 17.777344 -18.679688 L 3.519531 -18.679688 C 4.601562 -5.234375 14.710938 1.261719 29.960938 1.261719 C 42.414062 1.261719 53.695312 -5.234375 53.695312 -17.328125 C 53.695312 -27.164062 47.738281 -33.660156 34.023438 -36.910156 C 24.003906 -39.257812 20.847656 -41.78125 20.847656 -46.476562 C 20.847656 -50.988281 24.003906 -53.0625 28.425781 -53.0625 C 34.382812 -53.0625 37.632812 -49.363281 38.351562 -43.585938 L 52.613281 -43.585938 C 51.257812 -54.867188 44.398438 -63.53125 28.878906 -63.53125 Z M 28.878906 -63.53125 "/></g></g></g><g fill="#479ece" fill-opacity="1"><g transform="translate(499.697916, 215.416049)"><g><path d="M 57.304688 -51.257812 L 57.304688 -62.269531 L 1.714844 -62.269531 L 1.714844 -51.257812 L 22.46875 -51.257812 L 22.46875 0 L 36.546875 0 L 36.546875 -51.257812 Z M 57.304688 -51.257812 "/></g></g></g></svg>